<?xml version="1.0" standalone="no"?><!DOCTYPE svg PUBLIC "-//W3C//DTD SVG 1.1//EN" "http://www.w3.org/Graphics/SVG/1.1/DTD/svg11.dtd"><svg width="100%" height="100%" viewBox="0 0 274 510" version="1.1" xmlns="http://www.w3.org/2000/svg" xmlns:xlink="http://www.w3.org/1999/xlink" xml:space="preserve" style="fill-rule:evenodd;clip-rule:evenodd;stroke-linejoin:round;stroke-miterlimit:1.41421;"><path id="path3864-3-8" d="M142.875,133.254c-2.445,0.459 -9.707,1.823 -11.649,2.187c-4.049,0.795 -4.049,0.795 -4.968,-3.423c-4.487,-23.915 -12.495,-66.626 -15.751,-83.996c-0.718,-3.829 -0.718,-3.829 -5.285,0.011c-15.435,13.555 -31.879,34.306 -31.879,63.278c0,21.094 4.218,42.188 16.875,67.5c0,0 -8.438,0 -8.438,4.219c0,4.219 8.438,4.219 8.438,4.219c0,0 0,12.656 -4.219,16.875c0,0 -12.656,0 -12.656,8.437c0,8.438 12.656,8.438 12.656,8.438c-12.656,0 -25.313,0 -25.313,12.656c0,12.656 12.657,12.656 25.313,12.656c8.437,16.875 8.437,101.25 -12.656,147.657c-4.219,4.218 -12.657,4.218 -12.657,4.218c0,37.969 -54.843,46.407 -54.843,71.719c0,12.656 21.093,21.094 21.093,21.094c0,0 -25.312,4.219 -25.312,8.437l0,4.219c0,4.219 0,4.219 4.219,4.219l261.562,0c4.219,0 4.219,0 4.219,-4.219l0,-4.219c0,-4.218 -25.313,-8.437 -25.313,-8.437c0,0 21.094,-8.438 21.094,-21.094c0,-25.312 -54.844,-33.75 -54.844,-71.719c0,0 -8.437,0 -12.656,-4.218c-21.094,-46.407 -21.094,-130.782 -12.656,-147.657c12.656,0 25.312,0 25.312,-12.656c0,-12.656 -12.656,-12.656 -25.312,-12.656c0,0 12.656,0 12.656,-8.438c0,-8.437 -12.656,-8.437 -12.656,-8.437c-4.219,-4.219 -4.219,-16.875 -4.219,-16.875c0,0 8.438,0 8.438,-4.219c0,-4.219 -8.438,-4.219 -8.438,-4.219c12.656,-25.312 16.875,-46.406 16.875,-67.5c0,-46.406 -42.187,-71.718 -54.844,-80.156c12.657,-16.875 4.219,-29.531 -8.437,-29.531c-12.656,0 -21.094,12.656 -8.438,29.531c2.022,10.786 13.758,73.382 18.226,97.212c0.701,4.066 0.701,4.066 -3.537,4.887l0,0Z" style="fill:none;stroke-width:1.88px;stroke:#000;"/></svg>