<?xml version="1.0" standalone="no"?><!DOCTYPE svg PUBLIC "-//W3C//DTD SVG 1.1//EN" "http://www.w3.org/Graphics/SVG/1.1/DTD/svg11.dtd"><svg width="100%" height="100%" viewBox="0 0 100 125" version="1.1" xmlns="http://www.w3.org/2000/svg" xmlns:xlink="http://www.w3.org/1999/xlink" xml:space="preserve" style="fill-rule:evenodd;clip-rule:evenodd;stroke-linejoin:round;stroke-miterlimit:1.41421;"><path d="M58.292,81.733c2.468,-0.731 5.032,-1.59 5.684,-1.72c1.129,-0.225 1.954,-1.13 3.234,-1.13c1.28,0 4.358,-0.753 6.618,-0.753c2.254,0 1.954,0.529 2.33,1.206c0.355,0.636 0.974,1.14 1.111,1.95c-0.637,0.712 -3.474,3.533 -8.882,4.122c-6.203,0.676 -13.309,4.964 -13.309,4.964l3.427,-0.252l0,0c-0.096,-0.035 0.043,-0.121 0.225,-0.205c2.809,-2.447 8.639,-3.493 8.639,-3.493c6.561,-0.657 8.835,-2.679 9.623,-4.027c-0.162,-0.587 0.355,-0.264 0.297,-0.957c-0.005,-0.052 -0.011,-0.103 -0.02,-0.152c0.094,-0.105 0.14,-0.164 0.14,-0.164c0,0 0.014,0.536 -0.417,1.273c0.049,0.18 0.162,0.444 0.373,0.848c0.9,1.731 1.129,1.957 0.3,3.158c-0.829,1.204 0,0.903 0.6,1.469c0.605,0.56 -0.752,0.636 -0.752,0.636l0,0.903l-1.503,-0.076c-1.504,-0.075 -4.887,-0.376 -4.887,-0.376l-1.428,-0.451l-1.129,0.594c-2.481,-0.386 -9.325,0.611 -9.325,0.611c0,0 -0.288,0.1 -0.511,0.204c-0.077,0.067 -0.152,0.135 -0.225,0.205c0.075,0.027 0.29,0.023 0.736,-0.036c1.73,-0.225 4.966,0.452 4.966,0.452c1.051,1.051 4.812,0.076 4.812,0.076c0.902,1.428 4.661,0.076 4.661,0.076c0.376,0.826 2.18,1.056 2.18,1.056c0,0 0,0.674 -0.223,3.381c-0.227,2.708 -1.73,7.294 -2.031,9.25c-0.298,1.955 -0.074,3.156 0.379,4.286c0.449,1.13 0.603,3.909 0.603,3.909c-1.282,-1.503 -6.394,-13.608 -6.394,-13.608c0.15,1.579 4.058,12.932 5.94,16.091c1.879,3.158 2.255,4.588 2.182,5.411c-0.077,0.827 -0.376,1.129 0.225,2.182c0.592,1.051 0.743,2.351 0.743,2.354l-9.173,0l0,-0.327c-1.579,-3.685 -1.131,-10.754 -1.428,-11.955c-0.302,-1.203 -0.302,-4.36 -0.903,-4.886c-0.603,-0.526 -5.111,-0.378 -5.111,-0.378c0.035,0.062 0.073,0.121 0.109,0.176c2.229,3.425 3.336,2.349 3.482,2.178l0.017,0.506c-0.151,-4.509 0,-0.527 0,-0.527c0,0 -0.006,0.008 -0.017,0.021l0.017,-0.021c0,0 -0.151,-3.982 0,0.527c0.149,4.509 1.053,4.283 1.053,4.283c0.9,2.63 1.051,10.396 1.051,10.403l-17.617,0c-2.142,-6.291 -1.479,-11.748 -1.479,-11.748c0.338,-4.172 5.786,-8.245 5.786,-8.245c-3.742,0.641 -5.643,4.378 -5.643,4.378c0.681,-4.288 2.937,-13.174 2.937,-13.174c-8.682,18.374 -3.465,28.782 -3.461,28.789l-5.559,0l0,-0.854c-0.226,-1.726 0,-5.641 0,-5.641c-1.504,-2.403 -2.782,-6.464 -3.083,-7.742c-0.301,-1.278 -0.979,-4.886 -0.903,-7.144c0.038,-1.119 -0.054,-1.572 -0.35,-1.91c-0.183,-0.102 -0.361,-0.244 -0.528,-0.436c-0.279,-0.196 -0.634,-0.433 -1.077,-0.813c-1.579,-1.352 0,-1.128 -0.301,-2.557c-0.091,-0.434 -0.141,-0.805 -0.149,-1.14c-0.103,-0.448 0.006,-0.862 0.172,-1.152c0.1,-0.285 0.242,-0.565 0.428,-0.866c0.601,-0.975 -0.678,-0.603 -2.332,-1.727c-1.654,-1.13 -0.677,-1.879 -0.301,-1.955c0.376,-0.079 1.053,0.751 1.429,-0.828c0.376,-1.578 2.556,-1.053 2.556,-1.053c0.679,0.085 0.604,0.079 2.183,-1.312c1.58,-1.392 6.09,-1.429 7.669,-2.144c1.43,-0.649 4.888,-2.782 7.067,-2.932c0.514,-0.036 1.286,-0.196 2.181,-0.424c0.69,-0.247 1.45,-0.463 2.286,-0.637ZM37.009,101.709c1.543,0.85 3.528,-1.206 3.528,-1.206c0.633,0.703 0.751,0.638 1.992,-0.34c1.24,-0.977 3.535,-6.129 3.535,-6.129c0,0 1.164,-1.353 -2.571,2.745c-3.734,4.096 -7.092,4.398 -7.092,4.398c0.027,0.033 0.053,0.065 0.08,0.096c0.222,0.155 0.396,0.284 0.528,0.436ZM46.122,91.053c0.878,-0.292 1.843,-0.622 0.712,-0.292c-0.202,0.06 -0.442,0.16 -0.712,0.292c-0.522,0.173 -1.014,0.334 -1.014,0.334c0,0 -5.192,2.834 -6.093,3.433c-0.903,0.604 -2.563,0.556 -3.384,0.381c-0.132,-0.03 -0.345,0.133 -0.505,0.41c-0.125,0.359 -0.182,0.725 -0.172,1.152c0.018,0.08 0.043,0.16 0.076,0.241c0.403,1.008 2.18,-0.605 3.683,-1.278c1.335,-0.602 5.278,-3.631 7.409,-4.673ZM58.292,81.733c-0.794,0.235 -1.578,0.457 -2.286,0.637c-6.44,2.31 -6.804,7.401 -6.804,7.401c0,0 -0.113,0.901 0.263,0.937c-0.001,-0.001 0.446,0.126 0.541,-0.227c1.468,-5.499 8.298,-8.75 8.298,-8.75l-0.012,0.002ZM32.761,55.962c-0.058,-0.423 -0.126,-2.874 3.81,-3.849c4.399,-1.09 5.866,1.54 5.79,2.405c-0.076,0.865 -0.638,3.835 -5.114,4.475c-4.474,0.638 -5.037,-2.481 -5.037,-2.481c0,0 -0.339,-1.994 -0.526,-9.964c-0.188,-7.97 3.346,-10.187 4.097,-10.564c0.752,-0.377 3.534,-2.668 5.151,-4.211c1.616,-1.54 0.866,-3.458 0.866,-3.458c0,0 -0.714,-1.653 -2.144,-5.037c-1.43,-3.384 -4.287,-3.197 -6.767,-4.964c-2.482,-1.766 -1.541,-4.735 -1.541,-4.735c-0.527,-3.422 0.602,-4.174 0.602,-4.174c-0.038,-8.27 7.707,-7.404 7.707,-7.404c5.973,-3.421 9.133,3.763 9.133,3.763c3.272,1.242 2.369,4.475 2.369,4.475c1.881,2.97 -0.677,4.926 -1.127,6.204c-0.452,1.277 -0.528,-0.377 0.713,4.096c1.241,4.474 7.256,4.212 8.385,4.474c1.127,0.263 2.743,0 3.796,-0.676c1.053,-0.678 3.194,-0.564 3.194,-0.564c-1.728,0.263 -2.504,2.909 -2.504,2.909c-0.341,8.13 7.919,8.821 7.919,8.821l-0.788,-0.341c-0.791,-0.339 -3.089,-2.747 -4.274,-4.945c-1.218,-2.261 -1.029,-6.203 2.13,-6.182c4.413,0.026 3.835,7.705 3.947,8.608c0.113,0.902 -0.149,6.842 0.15,9.849c0.301,3.007 1.203,13.798 0.902,15.791c-0.3,1.992 -0.563,3.31 -0.035,5.489c0.523,2.182 1.579,12.97 1.279,12.893c-0.301,-0.076 -1.204,0 -5.452,0.414c-4.249,0.412 -5.378,1.727 -7.106,2.104c-1.731,0.376 -3.76,0.604 -4.625,0.976c-0.863,0.377 -3.42,1.465 -4.81,1.806c-1.392,0.34 -3.61,1.279 -4.287,1.617c-0.677,0.338 -1.692,0.9 -2.405,1.201c-0.714,0.3 -2.934,0.676 -3.684,0.713c-0.752,0.038 -1.618,0.45 -2.257,0.564c-0.639,0.111 -3.032,3.214 -3.032,3.214c-0.225,-6.036 2.093,-13.63 2.544,-14.194c0.45,-0.563 0.76,-3.553 1.325,-4.481c0.563,-0.931 3.862,-6.768 3.862,-6.966c0,-0.198 1.368,-7.381 -1.001,-9.776c-2.368,-2.397 -2.988,-4.315 -3.045,-4.739c-0.057,-0.42 -0.152,-3.684 -0.152,-3.684c-2.198,-0.535 -3.303,-2.496 -3.303,-2.496c0.423,2.736 1.975,2.894 1.975,3.158c0,0.265 0.15,1.599 0.112,3.102c-0.035,1.46 0.635,1.988 0.675,2.019c0.029,0.007 0.311,0.103 0.002,0.001c-1.635,-0.535 -3.933,-0.029 -3.933,-0.029c-4.447,1.207 -3.609,4.296 -3.486,4.773c0.007,0.05 0.013,0.072 0.013,0.06c0,-0.007 -0.005,-0.028 -0.013,-0.06ZM54.201,67.943c0,0 0.483,1.483 1.668,0c0.001,0 -1.066,-0.339 -1.668,0ZM40.178,51.217c-0.003,-0.001 -0.003,-0.001 0.002,0.001l-0.002,-0.001Z" style="fill:none;stroke-width:0.55px;stroke:#000;"/></svg>